<svg xmlns="http://www.w3.org/2000/svg" viewBox="0 0 24 24">

  <symbol id="shape-10" fill-rule="evenodd" clip-rule="evenodd">
    <path d="M19 0h-14c-2.76 0-5 2.239-5 5v14c0 2.76 2.239 5 5 5h14c2.759 0 5-2.239 5-5v-14c0-2.76-2.239-5-5-5m0 2c1.66 0 3 1.345 3 3v14c0 1.654-1.338 3-3 3h-14c-1.654 0-3-1.339-3-3v-14c0-1.658 1.342-3 3-3h14z" />
  </symbol>

  <symbol id="checkbox-9">
    <path d="M10.041 17l-4.5-4.319 1.395-1.435 3.08 2.937 7.021-7.183 1.422 1.409-8.418 8.591zm-5.041-15c-1.654 0-3 1.346-3 3v14c0 1.654 1.346 3 3 3h14c1.654 0 3-1.346 3-3v-14c0-1.654-1.346-3-3-3h-14zm19 3v14c0 2.761-2.238 5-5 5h-14c-2.762 0-5-2.239-5-5v-14c0-2.761 2.238-5 5-5h14c2.762 0 5 2.239 5 5z" />
  </symbol>

  <symbol id="circle-2">
    <path d="M12 2c5.514 0 10 4.486 10 10s-4.486 10-10 10-10-4.486-10-10 4.486-10 10-10zm0-2c-6.627 0-12 5.373-12 12s5.373 12 12 12 12-5.373 12-12-5.373-12-12-12z" />
  </symbol>

  <symbol id="checkbox-28">
    <path d="M12 2c5.514 0 10 4.486 10 10s-4.486 10-10 10-10-4.486-10-10 4.486-10 10-10zm0-2c-6.627 0-12 5.373-12 12s5.373 12 12 12 12-5.373 12-12-5.373-12-12-12zm0 6c-3.313 0-6 2.687-6 6s2.687 6 6 6c3.314 0 6-2.687 6-6s-2.686-6-6-6z" />
  </symbol>

  <!-- Not necessary (only onw below) -->
  <symbol id="heart-filled">
    <path d="m12 5.72c-2.624-4.517-10-3.198-10 2.461 0 3.725 4.345 7.727 9.303 12.54.194.189.446.283.697.283s.503-.094.697-.283c4.977-4.831 9.303-8.814 9.303-12.54 0-5.678-7.396-6.944-10-2.461z" />
  </symbol>

  <symbol id="arrow-65">
    <path d="M0 7.33l2.829-2.83 9.175 9.339 9.167-9.339 2.829 2.83-11.996 12.17z" />
  </symbol>

  <symbol id="x-mark-circle-lined"
    clip-rule="evenodd"
    fill-rule="evenodd"
    stroke-linejoin="round"
    stroke-miterlimit="2">
    <path d="m12.002 2.005c5.518 0 9.998 4.48 9.998 9.997 0 5.518-4.48 9.998-9.998 9.998-5.517 0-9.997-4.48-9.997-9.998 0-5.517 4.48-9.997 9.997-9.997zm0 1.5c-4.69 0-8.497 3.807-8.497 8.497s3.807 8.498 8.497 8.498 8.498-3.808 8.498-8.498-3.808-8.497-8.498-8.497zm0 7.425 2.717-2.718c.146-.146.339-.219.531-.219.404 0 .75.325.75.75 0 .193-.073.384-.219.531l-2.717 2.717 2.727 2.728c.147.147.22.339.22.531 0 .427-.349.75-.75.75-.192 0-.384-.073-.53-.219l-2.729-2.728-2.728 2.728c-.146.146-.338.219-.53.219-.401 0-.751-.323-.751-.75 0-.192.073-.384.22-.531l2.728-2.728-2.722-2.722c-.146-.147-.219-.338-.219-.531 0-.425.346-.749.75-.749.192 0 .385.073.531.219z" />
  </symbol>

  <symbol id="check-mark-circle-lined">
    <path d="m11.998 2.005c5.517 0 9.997 4.48 9.997 9.997 0 5.518-4.48 9.998-9.997 9.998-5.518 0-9.998-4.48-9.998-9.998 0-5.517 4.48-9.997 9.998-9.997zm0 1.5c-4.69 0-8.498 3.807-8.498 8.497s3.808 8.498 8.498 8.498 8.497-3.808 8.497-8.498-3.807-8.497-8.497-8.497zm-5.049 8.886 3.851 3.43c.142.128.321.19.499.19.202 0 .405-.081.552-.242l5.953-6.509c.131-.143.196-.323.196-.502 0-.41-.331-.747-.748-.747-.204 0-.405.082-.554.243l-5.453 5.962-3.298-2.938c-.144-.127-.321-.19-.499-.19-.415 0-.748.335-.748.746 0 .205.084.409.249.557z" />
  </symbol>

  <symbol id="error-lined" clip-rule="evenodd" fill-rule="evenodd" stroke-linejoin="round" stroke-miterlimit="2">
    <path d="m12.002 21.534c5.518 0 9.998-4.48 9.998-9.998s-4.48-9.997-9.998-9.997c-5.517 0-9.997 4.479-9.997 9.997s4.48 9.998 9.997 9.998zm0-1.5c-4.69 0-8.497-3.808-8.497-8.498s3.807-8.497 8.497-8.497 8.498 3.807 8.498 8.497-3.808 8.498-8.498 8.498zm0-6.5c-.414 0-.75-.336-.75-.75v-5.5c0-.414.336-.75.75-.75s.75.336.75.75v5.5c0 .414-.336.75-.75.75zm-.002 3c.552 0 1-.448 1-1s-.448-1-1-1-1 .448-1 1 .448 1 1 1z" />
  </symbol>

  <symbol id="info-lined" clip-rule="evenodd" fill-rule="evenodd" stroke-linejoin="round" stroke-miterlimit="2">
    <path d="m12.002 2.005c5.518 0 9.998 4.48 9.998 9.997 0 5.518-4.48 9.998-9.998 9.998-5.517 0-9.997-4.48-9.997-9.998 0-5.517 4.48-9.997 9.997-9.997zm0 1.5c-4.69 0-8.497 3.807-8.497 8.497s3.807 8.498 8.497 8.498 8.498-3.808 8.498-8.498-3.808-8.497-8.498-8.497zm0 6.5c-.414 0-.75.336-.75.75v5.5c0 .414.336.75.75.75s.75-.336.75-.75v-5.5c0-.414-.336-.75-.75-.75zm-.002-3c.552 0 1 .448 1 1s-.448 1-1 1-1-.448-1-1 .448-1 1-1z" fill-rule="nonzero"/>
  </symbol>

  <symbol id="arrow-light-circle-filled"
    clip-rule="evenodd"
    fill-rule="evenodd"
    stroke-linejoin="round"
    stroke-miterlimit="2">
    <path d="m12.007 2c-5.518 0-9.998 4.48-9.998 9.998 0 5.517 4.48 9.997 9.998 9.997s9.998-4.48 9.998-9.997c0-5.518-4.48-9.998-9.998-9.998zm1.523 6.21s1.502 1.505 3.255 3.259c.147.147.22.339.22.531s-.073.383-.22.53c-1.753 1.754-3.254 3.258-3.254 3.258-.145.145-.335.217-.526.217-.192-.001-.384-.074-.531-.221-.292-.293-.294-.766-.003-1.057l1.977-1.977h-6.693c-.414 0-.75-.336-.75-.75s.336-.75.75-.75h6.693l-1.978-1.979c-.29-.289-.287-.762.006-1.054.147-.147.339-.221.53-.222.19 0 .38.071.524.215z"
      fill-rule="nonzero" />
  </symbol>

  <symbol id="speech-bubble-23">
    <path d="M19.619 21.671c-5.038 1.227-8.711-1.861-8.711-5.167 0-3.175 3.11-5.467 6.546-5.467 3.457 0 6.546 2.309 6.546 5.467 0 1.12-.403 2.22-1.117 3.073-.029 1 .558 2.435 1.088 3.479-1.419-.257-3.438-.824-4.352-1.385zm-10.711-5.167c0-4.117 3.834-7.467 8.546-7.467.886 0 1.74.119 2.544.338-.021-4.834-4.761-8.319-9.998-8.319-5.281 0-10 3.527-10 8.352 0 1.71.615 3.391 1.705 4.695.047 1.527-.851 3.718-1.661 5.313 2.168-.391 5.252-1.258 6.649-2.115.803.196 1.576.304 2.328.363-.067-.379-.113-.765-.113-1.16z" />
  </symbol>

  <symbol id="user-1">
    <path d="M20.822 18.096c-3.439-.794-6.64-1.49-5.09-4.418 4.72-8.912 1.251-13.678-3.732-13.678-5.082 0-8.464 4.949-3.732 13.678 1.597 2.945-1.725 3.641-5.09 4.418-3.073.71-3.188 2.236-3.178 4.904l.004 1h23.99l.004-.969c.012-2.688-.092-4.222-3.176-4.935z" />
  </symbol>

  <symbol id="gear-11">
    <path d="M17 10.645v-2.29c-1.17-.417-1.907-.533-2.28-1.431-.373-.9.07-1.512.6-2.625l-1.618-1.619c-1.105.525-1.723.974-2.626.6-.9-.373-1.017-1.116-1.431-2.28h-2.29c-.412 1.158-.53 1.907-1.431 2.28h-.001c-.9.374-1.51-.07-2.625-.6l-1.617 1.619c.527 1.11.973 1.724.6 2.625-.375.901-1.123 1.019-2.281 1.431v2.289c1.155.412 1.907.531 2.28 1.431.376.908-.081 1.534-.6 2.625l1.618 1.619c1.107-.525 1.724-.974 2.625-.6h.001c.9.373 1.018 1.118 1.431 2.28h2.289c.412-1.158.53-1.905 1.437-2.282h.001c.894-.372 1.501.071 2.619.602l1.618-1.619c-.525-1.107-.974-1.723-.601-2.625.374-.899 1.126-1.019 2.282-1.43zm-8.5 1.689c-1.564 0-2.833-1.269-2.833-2.834s1.269-2.834 2.833-2.834 2.833 1.269 2.833 2.834-1.269 2.834-2.833 2.834zm15.5 4.205v-1.077c-.55-.196-.897-.251-1.073-.673-.176-.424.033-.711.282-1.236l-.762-.762c-.52.248-.811.458-1.235.283-.424-.175-.479-.525-.674-1.073h-1.076c-.194.545-.25.897-.674 1.073-.424.176-.711-.033-1.235-.283l-.762.762c.248.523.458.812.282 1.236-.176.424-.528.479-1.073.673v1.077c.544.193.897.25 1.073.673.177.427-.038.722-.282 1.236l.762.762c.521-.248.812-.458 1.235-.283.424.175.479.526.674 1.073h1.076c.194-.545.25-.897.676-1.074h.001c.421-.175.706.034 1.232.284l.762-.762c-.247-.521-.458-.812-.282-1.235s.529-.481 1.073-.674zm-4 .794c-.736 0-1.333-.597-1.333-1.333s.597-1.333 1.333-1.333 1.333.597 1.333 1.333-.597 1.333-1.333 1.333zm-4 3.071v-.808c-.412-.147-.673-.188-.805-.505s.024-.533.212-.927l-.572-.571c-.389.186-.607.344-.926.212s-.359-.394-.506-.805h-.807c-.146.409-.188.673-.506.805-.317.132-.533-.024-.926-.212l-.572.571c.187.393.344.609.212.927-.132.318-.396.359-.805.505v.808c.408.145.673.188.805.505.133.32-.028.542-.212.927l.572.571c.39-.186.608-.344.926-.212.318.132.359.395.506.805h.807c.146-.409.188-.673.507-.805h.001c.315-.131.529.025.924.213l.572-.571c-.186-.391-.344-.609-.212-.927s.397-.361.805-.506zm-3 .596c-.552 0-1-.447-1-1s.448-1 1-1 1 .447 1 1-.448 1-1 1z" />
  </symbol>

  <symbol id="check-mark-17" fill-rule="evenodd" clip-rule="evenodd">
    <path d="M21 6.285l-11.16 12.733-6.84-6.018 1.319-1.49 5.341 4.686 9.865-11.196 1.475 1.285z" />
  </symbol>

  <symbol id="check-mark-18" fill-rule="evenodd" clip-rule="evenodd">
    <path d="M24 6.278l-11.16 12.722-6.84-6 1.319-1.49 5.341 4.686 9.865-11.196 1.475 1.278zm-22.681 5.232l6.835 6.01-1.314 1.48-6.84-6 1.319-1.49zm9.278.218l5.921-6.728 1.482 1.285-5.921 6.756-1.482-1.313z" />
  </symbol>

  <symbol id="menu-dot-vertical-filled"
    clip-rule="evenodd"
    fill-rule="evenodd"
    stroke-linejoin="round"
    stroke-miterlimit="2">
    <path d="m12 16.495c1.242 0 2.25 1.008 2.25 2.25s-1.008 2.25-2.25 2.25-2.25-1.008-2.25-2.25 1.008-2.25 2.25-2.25zm0-6.75c1.242 0 2.25 1.008 2.25 2.25s-1.008 2.25-2.25 2.25-2.25-1.008-2.25-2.25 1.008-2.25 2.25-2.25zm0-6.75c1.242 0 2.25 1.008 2.25 2.25s-1.008 2.25-2.25 2.25-2.25-1.008-2.25-2.25 1.008-2.25 2.25-2.25z" />
  </symbol>

  <symbol id="arrow-64">
    <path d="M16.67 0l2.83 2.829-9.339 9.175 9.339 9.167-2.83 2.829-12.17-11.996z" />
  </symbol>

  <symbol id="copy-lined" clip-rule="evenodd" fill-rule="evenodd" stroke-linejoin="round" stroke-miterlimit="2">
    <path d="m6 18h-3c-.48 0-1-.379-1-1v-14c0-.481.38-1 1-1h14c.621 0 1 .522 1 1v3h3c.621 0 1 .522 1 1v14c0 .621-.522 1-1 1h-14c-.48 0-1-.379-1-1zm1.5-10.5v13h13v-13zm9-1.5v-2.5h-13v13h2.5v-9.5c0-.481.38-1 1-1z"
      fill-rule="nonzero" />
  </symbol>

  <symbol id="pencil-text-filled" clip-rule="evenodd" fill-rule="evenodd" stroke-linejoin="round" stroke-miterlimit="2">
    <path d="m11.239 15.533c-1.045 3.004-1.238 3.451-1.238 3.84 0 .441.385.627.627.627.272 0 1.108-.301 3.829-1.249zm.888-.888 3.22 3.22 6.408-6.401c.163-.163.245-.376.245-.591 0-.213-.082-.427-.245-.591-.58-.579-1.458-1.457-2.039-2.036-.163-.163-.377-.245-.591-.245-.213 0-.428.082-.592.245zm-3.127-.895c0-.402-.356-.75-.75-.75-2.561 0-2.939 0-5.5 0-.394 0-.75.348-.75.75s.356.75.75.75h5.5c.394 0 .75-.348.75-.75zm5-3c0-.402-.356-.75-.75-.75-2.561 0-7.939 0-10.5 0-.394 0-.75.348-.75.75s.356.75.75.75h10.5c.394 0 .75-.348.75-.75zm0-3c0-.402-.356-.75-.75-.75-2.561 0-7.939 0-10.5 0-.394 0-.75.348-.75.75s.356.75.75.75h10.5c.394 0 .75-.348.75-.75zm0-3c0-.402-.356-.75-.75-.75-2.561 0-7.939 0-10.5 0-.394 0-.75.348-.75.75s.356.75.75.75h10.5c.394 0 .75-.348.75-.75z"
      fill-rule="nonzero" />
  </symbol>

  <symbol id="trash-can-lined" clip-rule="evenodd" fill-rule="evenodd" stroke-linejoin="round" stroke-miterlimit="2">
    <path d="m4.015 5.494h-.253c-.413 0-.747-.335-.747-.747s.334-.747.747-.747h5.253v-1c0-.535.474-1 1-1h4c.526 0 1 .465 1 1v1h5.254c.412 0 .746.335.746.747s-.334.747-.746.747h-.254v15.435c0 .591-.448 1.071-1 1.071-2.873 0-11.127 0-14 0-.552 0-1-.48-1-1.071zm14.5 0h-13v15.006h13zm-4.25 2.506c-.414 0-.75.336-.75.75v8.5c0 .414.336.75.75.75s.75-.336.75-.75v-8.5c0-.414-.336-.75-.75-.75zm-4.5 0c-.414 0-.75.336-.75.75v8.5c0 .414.336.75.75.75s.75-.336.75-.75v-8.5c0-.414-.336-.75-.75-.75zm3.75-4v-.5h-3v.5z"
      fill-rule="nonzero" />
  </symbol>

  <symbol id="rocket-20">
    <path d="M8.566 17.842c-.945 2.462-3.678 4.012-6.563 4.161.139-2.772 1.684-5.608 4.209-6.563l.51.521c-1.534 1.523-2.061 2.765-2.144 3.461.704-.085 2.006-.608 3.483-2.096l.505.516zm-1.136-11.342c-1.778-.01-4.062.911-5.766 2.614-.65.649-1.222 1.408-1.664 2.258 1.538-1.163 3.228-1.485 5.147-.408.566-1.494 1.32-3.014 2.283-4.464zm5.204 17.5c.852-.44 1.61-1.013 2.261-1.664 1.708-1.706 2.622-4.001 2.604-5.782-1.575 1.03-3.125 1.772-4.466 2.296 1.077 1.92.764 3.614-.399 5.15zm11.312-23.956c-.428-.03-.848-.044-1.261-.044-9.338 0-14.465 7.426-16.101 13.009l4.428 4.428c5.78-1.855 12.988-6.777 12.988-15.993v-.059c-.002-.437-.019-.884-.054-1.341zm-5.946 7.956c-1.105 0-2-.895-2-2s.895-2 2-2 2 .895 2 2-.895 2-2 2z" />
  </symbol>

  <symbol id="custom-send-1" viewBox="0 0 512 512">
    <path xmlns="http://www.w3.org/2000/svg"
      d="M476.59,227.05l-.16-.07L49.35,49.84A23.56,23.56,0,0,0,27.14,52,24.65,24.65,0,0,0,16,72.59V185.88a24,24,0,0,0,19.52,23.57l232.93,43.07a4,4,0,0,1,0,7.86L35.53,303.45A24,24,0,0,0,16,327V440.31A23.57,23.57,0,0,0,26.59,460a23.94,23.94,0,0,0,13.22,4,24.55,24.55,0,0,0,9.52-1.93L476.4,285.94l.19-.09a32,32,0,0,0,0-58.8Z" />
  </symbol>

  <symbol id="mailat-1" viewBox="0 0 493.332 493.332">
    <path xmlns="http://www.w3.org/2000/svg"
      id="XMLID_81_"
      d="M352.731,450.956c3.037,9.789-2.044,20.213-11.616,23.878c-35.811,13.709-69.294,18.498-112.873,18.498     c-117.663,0-221.147-84.347-221.147-223.275C7.095,125.46,112.003,0,272.2,0c124.735,0,214.036,85.764,214.036,204.845     c0,103.483-58.12,168.693-134.66,168.693c-33.327,0-57.419-17.007-60.955-54.582h-1.424c-21.963,36.15-53.86,54.582-91.43,54.582     c-46.082,0-79.376-34.022-79.376-92.142c0-86.475,63.769-165.147,165.841-165.147c18.691,0,38.9,2.795,55.909,7.172     c16.425,4.227,26.861,20.236,24.147,36.978l-16.972,104.695c-7.072,41.818-2.112,60.953,17.721,61.666     c30.475,0.711,68.762-38.272,68.762-119.786c0-92.15-59.543-163.732-169.41-163.732c-108.444,0-203.428,85.051-203.428,220.436     c0,118.369,75.834,185.708,181.448,185.708c27.489,0,56.203-4.51,80.853-13.214c5.863-2.07,12.315-1.662,17.872,1.126     c5.558,2.788,9.753,7.716,11.595,13.655L352.731,450.956z M293.954,181.362c0.534-3.626-1.892-7.027-5.496-7.696     c-4.413-0.819-9.536-1.426-15.573-1.426c-46.771,0-83.617,46.076-83.617,100.653c0,26.94,12.037,43.946,35.423,43.946     c26.231,0,53.876-33.31,60.265-74.425L293.954,181.362z" />
  </symbol>

</svg>
