<svg width="100" height="100" viewBox="0 0 100 100" fill="none" xmlns="http://www.w3.org/2000/svg">
  <rect width="100" height="100" rx="20" fill="#0313FC" />
  <path d="M70.3173 75.7893C56.8827 79.0613 47.088 70.8267 47.088 62.0107C47.088 53.544 55.3813 47.432 64.544 47.432C73.7627 47.432 82 53.5893 82 62.0107C82 64.9973 80.9253 67.9307 79.0213 70.2053C78.944 72.872 80.5093 76.6987 81.9227 79.4827C78.1387 78.7973 72.7547 77.2853 70.3173 75.7893V75.7893ZM41.7547 62.0107C41.7547 51.032 51.9787 42.0987 64.544 42.0987C66.9067 42.0987 69.184 42.416 71.328 43C71.272 30.1093 58.632 20.816 44.6667 20.816C30.584 20.816 18 30.2213 18 43.088C18 47.648 19.64 52.1307 22.5467 55.608C22.672 59.68 20.2773 65.5227 18.1173 69.776C23.8987 68.7333 32.1227 66.4213 35.848 64.136C37.9893 64.6587 40.0507 64.9467 42.056 65.104C41.8773 64.0933 41.7547 63.064 41.7547 62.0107V62.0107Z"
    fill="white" />
</svg>
